<svg id="Capa_1" enable-background="new 0 0 512 512" height="512" viewBox="0 0 512 512" width="512" xmlns="http://www.w3.org/2000/svg"><g><g><g><g><path d="m256 512c-1.337 0-2.674-.179-3.976-.536l-2.263-.622c-26.682-7.338-51.293-19.66-73.153-36.626-16.72-12.977-31.207-28.186-43.239-45.372l-16.763 16.763c-5.056 5.057-12.978 5.841-18.927 1.874-54.025-36.017-75.047-104.807-51.888-164.293l-36.267-14.223c-5.745-2.253-9.524-7.794-9.524-13.965v-.543c0-64.159 27.926-124.088 75.862-165.137l-27.423-10.492c-5.021-1.922-8.63-6.383-9.46-11.695s1.247-10.661 5.443-14.022l26.12-20.92c25.918-20.758 58.479-32.191 91.686-32.191 24.61 0 49.021 6.262 70.595 18.107l23.177 12.729 24.216-13.298c20.894-11.474 44.536-17.538 68.371-17.538h1.014c33.317 0 65.939 11.433 91.858 32.192l26.118 20.918c4.196 3.361 6.273 8.711 5.443 14.022-.83 5.312-4.439 9.774-9.46 11.695l-27.422 10.493c47.936 41.049 75.862 100.977 75.862 165.137v.543c0 6.171-3.779 11.712-9.524 13.965l-36.268 14.223c23.16 59.486 2.138 128.276-51.888 164.293-5.949 3.968-13.872 3.182-18.927-1.874l-16.763-16.763c-12.032 17.187-26.519 32.396-43.239 45.372-21.859 16.966-46.471 29.288-73.151 36.625l-2.265.623c-1.301.357-2.638.536-3.975.536z" fill="#ff4d05"/></g></g><path d="m436.138 89.32 27.422-10.492c5.021-1.921 8.631-6.383 9.46-11.695.83-5.312-1.247-10.661-5.443-14.022l-26.118-20.918c-25.918-20.76-58.541-32.193-91.858-32.193h-1.014c-23.835 0-47.477 6.064-68.371 17.538l-24.216 13.298v481.164c1.337 0 2.674-.179 3.976-.536l2.265-.623c26.68-7.337 51.292-19.659 73.151-36.625 16.72-12.977 31.207-28.186 43.239-45.372l16.763 16.763c5.055 5.056 12.978 5.842 18.927 1.874 54.025-36.017 75.047-104.807 51.888-164.293l36.268-14.223c5.744-2.253 9.523-7.794 9.523-13.965v-.543c0-64.16-27.926-124.088-75.862-165.137z" fill="#be0000"/><g><path d="m256 417.781c-18.163 0-35.408-1.36-48.559-3.83-14.326-2.69-31.184-7.646-34.419-22.205-.101-.452-.18-.908-.238-1.367l-5.903-46.563c-.78-6.152 2.307-12.15 7.766-15.092l74.238-40c4.442-2.393 9.788-2.393 14.23 0l74.238 40c5.459 2.941 8.545 8.939 7.766 15.092l-5.903 46.563c-.058.459-.138.915-.238 1.367-3.235 14.56-20.094 19.515-34.419 22.205-13.151 2.47-30.396 3.83-48.559 3.83z" fill="#ff9d21"/></g><g><path d="m304.559 413.951c14.326-2.69 31.184-7.646 34.419-22.205.101-.452.18-.908.238-1.367l5.903-46.563c.78-6.152-2.307-12.15-7.766-15.092l-74.238-40c-2.221-1.196-4.668-1.794-7.115-1.794v130.852c18.163-.001 35.408-1.361 48.559-3.831z" fill="#ff7038"/></g><g><path d="m333.411 357.063c-5.472 0-10.969-.942-16.244-2.86l-61.167-22.242-61.167 22.242c-14.569 5.299-30.852 3.152-43.551-5.743-12.7-8.895-20.282-23.462-20.282-38.967 0-12.707 4.949-24.654 13.934-33.641l8.609-8.608-3.662-2.93c-24.709-19.767-38.881-49.253-38.881-80.897 0-34.718 17.246-66.942 46.133-86.199 17.432-11.622 39.561-12.383 57.75-1.989 25.362 14.493 56.873 14.493 82.234 0 18.191-10.396 40.318-9.632 57.75 1.989 28.887 19.257 46.133 51.481 46.133 86.199 0 31.644-14.172 61.13-38.881 80.897l-3.662 2.93 8.608 8.608c8.986 8.986 13.935 20.934 13.935 33.641 0 15.505-7.582 30.072-20.282 38.967-8.102 5.675-17.664 8.603-27.307 8.603z" fill="#ffdd54"/></g><path d="m317.167 354.203c5.275 1.918 10.772 2.86 16.244 2.86 9.644 0 19.206-2.929 27.308-8.604 12.7-8.895 20.282-23.462 20.282-38.967 0-12.707-4.949-24.654-13.935-33.641l-8.608-8.608 3.662-2.93c24.708-19.766 38.88-49.252 38.88-80.896 0-34.718-17.246-66.942-46.132-86.199-17.432-11.621-39.56-12.385-57.75-1.989-12.681 7.247-26.899 10.87-41.117 10.87v225.863z" fill="#ff9d21"/></g><path d="m256 331.961 15 5.455v-59.207l19.371-15.496c6.469-5.175 7.518-14.614 2.342-21.083-5.175-6.47-14.613-7.52-21.083-2.343l-15.63 12.504-15.629-12.504c-6.47-5.176-15.909-4.126-21.083 2.343-5.175 6.469-4.126 15.908 2.342 21.083l19.37 15.496v59.206z" fill="#08475e"/><g><path d="m271 337.416v-59.207l19.371-15.496c6.469-5.175 7.518-14.614 2.342-21.083-5.175-6.47-14.613-7.52-21.083-2.343l-15.63 12.504v80.17z" fill="#05303d"/></g><path d="m196 211c-8.284 0-15-6.716-15-15v-20c0-8.284 6.716-15 15-15s15 6.716 15 15v20c0 8.284-6.716 15-15 15z" fill="#08475e"/><path d="m316 211c-8.284 0-15-6.716-15-15v-20c0-8.284 6.716-15 15-15s15 6.716 15 15v20c0 8.284-6.716 15-15 15z" fill="#05303d"/></g></svg>